{"title":"Dalziel &amp; Pascoe S07","uid":15516241,"size":3554068871,"categoryP":"video","categoryS":"tv_shows","magnet":"?xt=urn:btih:d5ed9912db7f597bddd922c1dae9f46886ed4659&amp;dn=Dalziel+%26amp%3B+Pascoe+S07&amp;tr=udp%3A%2F%2Ftracker.leechers-paradise.org%3A6969&amp;tr=udp%3A%2F%2Fzer0day.ch%3A1337&amp;tr=udp%3A%2F%2Fopen.demonii.com%3A1337&amp;tr=udp%3A%2F%2Ftracker.coppersurfer.tk%3A6969&amp;tr=udp%3A%2F%2Fexodus.desync.com%3A6969","seeders":3,"leechers":1,"uploader":"RedBaron58","files":5,"time":1470705044,"description":"Dalziel and Pascoe S07 DVDrip x264 mp4\r\n  \nhttp://www.imdb.com/title/tt0147760/\r\n\r\nThank you for your kind comments and feedback on my other torrents, your feedback is welcome.\r\n\r\nAbout the Series:\r\nThe series is primarily set in Yorkshire, and follows the work of two detectives that are \r\nthrown together as partners. Complete opposites. Different backgrounds, different beliefs, \r\ndifferent styles. They get on each other's nerves.\r\n\r\nEpisode 1 &quot;The Unwanted&quot;\r\nMartin Wilkie, a soldier with the local army regiment, is found dead in a pig shed on the \r\nwedding day of one of his closest colleagues.\r\n\r\nEpisode 2 &quot;Mens Sana&quot;\r\n73-year-old Mrs. Vannstone is found dead in a seaweed bath at a local spa. With Dalziel \r\non a month's sick leave following his heart attack, it's left to Pascoe to deal with the case.\r\n\r\nEpisode 3 &quot;Sins of the Fathers&quot;\r\nDalziel and Pascoe track down the manager of a childrens home, a local church priest, \r\nFather Leonard Tibbings and they discover a systematic chain of abuse by Tibbings and \r\nthe church.\r\n\r\nEpisode 4 &quot;For Love Nor Money&quot;\r\nDalziel and Pascoe investigate the death of retired police officer Donald Fitzgerald, \r\nwho is found bludgeoned to death on a local golf course\r\n\r\nEpisode 5-6 &quot;Dialogues of the Dead&quot;\r\nDalziel and Pascoe investigate a series of bizarre murders, all of which appear to have been \r\ncommitted by the same killer, although appear on the surface to have little or no connection.\r\n\r\nTechnical: (All episodes are encoded to the same settings)\r\n\r\nGeneral\r\nComplete name                            : I:Dalziel &amp; Pascoe S07Dalziel Pascoe S07E01 - The Unwanted x264 RB58.mp4\r\nFormat                                   : MPEG-4\r\nFormat profile                           : Base Media / Version 2\r\nCodec ID                                 : mp42\r\nFile size                                : 634 MiB\r\nDuration                                 : 1h 28mn\r\nOverall bit rate mode                    : Variable\r\nOverall bit rate                         : 1 000 Kbps\r\nEncoded date                             : UTC 2016-08-04 15:30:57\r\nTagged date                              : UTC 2016-08-04 15:34:08\r\nWriting application                      : HandBrake 0.9.8 2012071700\r\n\r\nVideo\r\nID                                       : 1\r\nFormat                                   : AVC\r\nFormat/Info                              : Advanced Video Codec\r\nFormat profile                           :   \r\nFormat settings, CABAC                   : Yes\r\nFormat settings, ReFrames                : 4 frames\r\nCodec ID                                 : avc1\r\nCodec ID/Info                            : Advanced Video Coding\r\nDuration                                 : 1h 28mn\r\nBit rate                                 : 900 Kbps\r\nWidth                                    : 718 pixels\r\nHeight                                   : 576 pixels\r\nDisplay aspect ratio                     : 16:9\r\nFrame rate mode                          : Constant\r\nFrame rate                               : 25.000 fps\r\nColor space                              : YUV\r\nChroma subsampling                       : 4:2:0\r\nBit depth                                : 8 bits\r\nScan type                                : Progressive\r\nBits/(Pixel*Frame)                       : 0.087\r\nStream size                              : 571 MiB (90%)\r\nWriting library                          : x264 core 120\r\nEncoding settings                        : cabac=1 / ref=1 / deblock=1:0:0\r\nEncoded date                             : UTC 2016-08-04 15:30:57\r\nTagged date                              : UTC 2016-08-04 15:34:08\r\nColor range                              : Limited\r\nColor primaries                          : BT.601 NTSC\r\nTransfer characteristics                 : BT.709\r\nMatrix coefficients                      : BT.601\r\n\r\nAudio\r\nID                                       : 2\r\nFormat                                   : AAC\r\nFormat/Info                              : Advanced Audio Codec\r\nFormat profile                           : LC\r\nCodec ID                                 : 40\r\nDuration                                 : 1h 28mn\r\nBit rate mode                            : Variable\r\nBit rate                                 : 96.0 Kbps\r\nMaximum bit rate                         : 126 Kbps\r\nChannel(s)                               : 2 channels\r\nChannel positions                        : Front: L R\r\nSampling rate                            : 48.0 KHz\r\nCompression mode                         : Lossy\r\nStream size                              : 60.9 MiB (10%)\r\nTitle                                    : Stereo\r\nLanguage                                 : English","torrent":{"xt":"urn:btih:d5ed9912db7f597bddd922c1dae9f46886ed4659","amp;dn":"Dalziel+%26amp%3B+Pascoe+S07","amp;tr":["udp%3A%2F%2Ftracker.leechers-paradise.org%3A6969","udp%3A%2F%2Fzer0day.ch%3A1337","udp%3A%2F%2Fopen.demonii.com%3A1337","udp%3A%2F%2Ftracker.coppersurfer.tk%3A6969","udp%3A%2F%2Fexodus.desync.com%3A6969"],"infoHash":"d5ed9912db7f597bddd922c1dae9f46886ed4659","infoHashBuffer":{"type":"Buffer","data":[213,237,153,18,219,127,89,123,221,217,34,193,218,233,244,104,134,237,70,89]},"announce":[],"urlList":[]}}